<svg width="45" height="45" viewBox="0 0 45 45" fill="none" xmlns="http://www.w3.org/2000/svg">
<g clip-path="url(#clip0_2_249)">
<path d="M22.0001 25.1667C21.7834 25.1667 21.5667 25.1167 21.3667 25L6.65006 16.4834C6.06673 16.1334 5.85006 15.3667 6.20006 14.7667C6.55006 14.1667 7.31673 13.9667 7.91673 14.3167L22.0001 22.4667L36.0001 14.3667C36.6001 14.0167 37.3667 14.2334 37.7167 14.8167C38.0667 15.4167 37.8501 16.1834 37.2667 16.5334L22.6501 25C22.4334 25.1 22.2167 25.1667 22.0001 25.1667Z" fill="white"/>
<path d="M22 40.2667C21.3167 40.2667 20.75 39.7 20.75 39.0167V23.9C20.75 23.2167 21.3167 22.65 22 22.65C22.6833 22.65 23.25 23.2167 23.25 23.9V39.0167C23.25 39.7 22.6833 40.2667 22 40.2667Z" fill="white"/>
<path d="M22.0001 40.9166C20.5334 40.9166 19.0834 40.6 17.9334 39.9666L9.0334 35.0166C6.61673 33.6833 4.7334 30.4666 4.7334 27.7V18.2833C4.7334 15.5166 6.61673 12.3166 9.0334 10.9666L17.9334 6.03331C20.2167 4.76665 23.7834 4.76665 26.0667 6.03331L34.9667 10.9833C37.3834 12.3166 39.2667 15.5333 39.2667 18.3V27.7166C39.2667 30.4833 37.3834 33.6833 34.9667 35.0333L26.0667 39.9666C24.9167 40.6 23.4667 40.9166 22.0001 40.9166ZM22.0001 7.58331C20.9501 7.58331 19.9167 7.79998 19.1501 8.21665L10.2501 13.1666C8.65007 14.05 7.2334 16.45 7.2334 18.2833V27.7C7.2334 29.5333 8.65007 31.9333 10.2501 32.8333L19.1501 37.7833C20.6667 38.6333 23.3334 38.6333 24.8501 37.7833L33.7501 32.8333C35.3501 31.9333 36.7667 29.55 36.7667 27.7V18.2833C36.7667 16.45 35.3501 14.05 33.7501 13.15L24.8501 8.19998C24.0834 7.79998 23.0501 7.58331 22.0001 7.58331Z" fill="white"/>
</g>
<defs>
<clipPath id="clip0_2_249">
<rect width="45" height="45" fill="white"/>
</clipPath>
</defs>
</svg>
