<svg width="90" height="90" viewBox="0 0 90 90" fill="none" xmlns="http://www.w3.org/2000/svg">
<rect x="0.5" y="0.5" width="89" height="89" stroke="white"/>
<path d="M45.344 63.48C42.784 63.48 40.576 63 38.72 62.04C36.864 61.048 35.232 59.672 33.824 57.912L36.272 55.512C37.392 57.08 38.688 58.248 40.16 59.016C41.664 59.784 43.44 60.168 45.488 60.168C47.6 60.168 49.312 59.688 50.624 58.728C51.936 57.768 52.592 56.44 52.592 54.744C52.592 53.432 52.288 52.36 51.68 51.528C51.072 50.664 50.272 49.976 49.28 49.464C48.32 48.92 47.248 48.44 46.064 48.024C44.88 47.608 43.696 47.176 42.512 46.728C41.36 46.248 40.288 45.656 39.296 44.952C38.304 44.248 37.504 43.352 36.896 42.264C36.32 41.176 36.032 39.784 36.032 38.088C36.032 36.296 36.464 34.76 37.328 33.48C38.192 32.2 39.376 31.224 40.88 30.552C42.384 29.848 44.096 29.496 46.016 29.496C48.16 29.496 50.064 29.912 51.728 30.744C53.424 31.576 54.832 32.696 55.952 34.104L53.552 36.504C52.528 35.288 51.408 34.36 50.192 33.72C48.976 33.08 47.552 32.76 45.92 32.76C44 32.76 42.464 33.208 41.312 34.104C40.16 35 39.584 36.248 39.584 37.848C39.584 39.096 39.872 40.104 40.448 40.872C41.056 41.64 41.856 42.28 42.848 42.792C43.84 43.304 44.912 43.768 46.064 44.184C47.248 44.568 48.432 45 49.616 45.48C50.8 45.96 51.872 46.568 52.832 47.304C53.824 48.04 54.624 48.984 55.232 50.136C55.84 51.256 56.144 52.696 56.144 54.456C56.144 57.304 55.168 59.528 53.216 61.128C51.296 62.696 48.672 63.48 45.344 63.48Z" fill="white"/>
</svg>
